<svg id="New" xmlns="http://www.w3.org/2000/svg" viewBox="0 0 100 100"><defs><style>.cls-1{fill:#fff;}.cls-2{fill:#37b882;}.cls-3,.cls-4{fill:none;stroke:#37b882;stroke-miterlimit:10;}.cls-3{stroke-width:2px;}.cls-5{fill:#459ed7;}</style></defs><circle class="cls-1" cx="50" cy="50" r="50"/><g id="Layer_2" data-name="Layer 2"><g id="New-2" data-name="New"><path class="cls-2" d="M493.3,525v1.09c0,1.31.39,2,1.42,2s1.33-1,1.33-2.15c0-1.89-.4-2.47-2.29-4s-2.91-2.45-2.91-5.06c0-2.32.71-4.66,3.88-4.65s3.75,2.44,3.75,4.3v.94h-2.69v-.86c0-1.23-.21-2-1.11-2s-1.11.77-1.11,1.93.23,1.85,1.78,3c2.63,1.94,3.44,3.07,3.44,6,0,2.49-.88,4.86-4.16,4.86s-4.05-2.08-4.05-4.39v-1Z" transform="translate(-450 -450)"/><path class="cls-2" d="M503,524.06v2c0,1,.24,2,1.27,2s1.22-1,1.22-1.94v-.07h2.64v.06c0,1.43-.3,4.24-3.79,4.24s-4-2.15-4-4.91V521c0-1.87.58-4.68,4-4.68,2.91,0,3.86,2,3.86,4.66v3.09Zm2.58-2.13v-1.39c0-1.27-.29-1.95-1.26-1.95s-1.3.62-1.3,1.95v1.39Z" transform="translate(-450 -450)"/><path class="cls-2" d="M511.87,516.52c.84,6.6,1,8.24,1.12,9.82h0c.16-1.7.63-3.92,1.55-9.82h2.54c1,6.07,1.39,8.15,1.52,9.83h0c.13-1.45.21-2.8,1.14-9.83h2.72l-2.56,13.63h-2.63c-.63-3.93-1.3-7.11-1.52-9.13h0c-.16,1.87-.83,4.92-1.6,9.13h-2.7L509,516.52Z" transform="translate(-450 -450)"/><path class="cls-2" d="M530.69,527.36c0,.86,0,2.27.06,2.79h-2.48c-.06-.26-.15-.81-.18-1a2.35,2.35,0,0,1-2.25,1.21c-2,0-2.87-1.9-2.87-4v-.23c0-3.36,2.26-4.25,4.72-4.25H528v-1.7c0-1.07-.13-1.67-1-1.67s-1,.62-1,1.47v.22h-2.61V520c0-2,.76-3.72,3.75-3.72,2.63,0,3.55,1.45,3.55,3.65ZM528.05,524h-.45c-1.24,0-2.05.47-2.05,2.17v.21c0,1,.34,1.65,1.19,1.65s1.31-.63,1.31-2.47Z" transform="translate(-450 -450)"/><path class="cls-3" d="M505,501.45h8.87m-31.83-.13h17.09m20.07.09H523a5,5,0,0,0,2-1.1,5.1,5.1,0,0,0,1.39-1.67V484.17a16.58,16.58,0,0,0-5.49-10.69,16.81,16.81,0,0,0-13.64-3.59L504.18,471c-9.31,3.41-18.71,6.69-28,10.13a8.16,8.16,0,0,0-4.49,2.54,7.62,7.62,0,0,0-2,3c0,1-.07,2.07-.1,3.11l-.06,1.58v1.37c-.06,1.68-.11,3.38-.16,5.08a3,3,0,0,0,.21,2.19,2.84,2.84,0,0,0,1.4,1.29h7.11Zm-9-9q0-2.31-.06-4.62" transform="translate(-450 -450)"/><path class="cls-3" d="M510.36,501.47c0-1.34,0-2.67-.06-4,0-1.65-.06-3.31-.08-5l0-4.6c0-2.87-.09-5.74-.12-8.61a8.34,8.34,0,0,0-1.19-4.62,8.55,8.55,0,0,0-4.69-3.62" transform="translate(-450 -450)"/><path class="cls-2" d="M508.28,481.82a98.35,98.35,0,0,1-38.82,10.9v-1.37l.06-1.58c5-.62,10.19-1.42,15.63-2.45C493.55,485.74,501.26,483.84,508.28,481.82Z" transform="translate(-450 -450)"/><path class="cls-2" d="M526.37,490.27v2.65a13.9,13.9,0,0,1-10.25,2.31,13,13,0,0,1-5.94-2.74q0-2.31-.06-4.62a21.1,21.1,0,0,0,7.71,2.83A21.39,21.39,0,0,0,526.37,490.27Z" transform="translate(-450 -450)"/><path class="cls-4" d="M526.37,497.56q-8-.07-16.07-.1" transform="translate(-450 -450)"/><path class="cls-2" d="M482.42,500.57c0,.27,0,.55,0,.82-.22,2.1-1.27,3.69-2.53,3.69s-2.3-1.59-2.52-3.71a5.34,5.34,0,0,1,0-.8c0-2.49,1.14-4.52,2.56-4.52S482.42,498.08,482.42,500.57Z" transform="translate(-450 -450)"/><path class="cls-2" d="M505.18,499.47a10.34,10.34,0,0,1-.19,2c-.45,2.15-1.6,3.68-2.93,3.68s-2.46-1.51-2.88-3.72a10.34,10.34,0,0,1-.19-2c0-3.13,1.39-5.66,3.11-5.66S505.18,496.34,505.18,499.47Z" transform="translate(-450 -450)"/><path class="cls-2" d="M490.37,501.39v.17c0,1.9-1.16,3.44-2.58,3.44s-2.61-1.54-2.61-3.44a.61.61,0,0,1,0-.19Z" transform="translate(-450 -450)"/><path class="cls-2" d="M519.24,501.85c0,1.85-1.21,3.34-2.69,3.34s-2.68-1.49-2.68-3.34v-.36h5.35A2.43,2.43,0,0,1,519.24,501.85Z" transform="translate(-450 -450)"/></g></g><g id="Layer_2-2" data-name="Layer 2"><g id="New-3" data-name="New"><path class="cls-5" d="M478.41,530.06h-2.15q-.11-.66-.15-1.32a2.62,2.62,0,0,1-2.64,1.58c-2.59,0-3.42-1.88-3.42-4.86V517.2c0-2.88,1.11-5,4.17-5,3.7,0,4.09,2.72,4.09,4.6v.58h-2.69v-.73c0-.93-.13-2-1.37-2-1,0-1.41.68-1.41,2.09v9c0,1.41.41,2.14,1.39,2.14,1.17,0,1.46-1,1.46-2.79v-2.54h-1.54v-2.33h4.26Z" transform="translate(-450 -450)"/><path class="cls-5" d="M488.88,517.14v8.21c0,3.37-1.43,5-4.42,5s-4.14-1.7-4.14-5v-8.28c0-3.37,1.69-4.91,4.32-4.91S488.88,513.75,488.88,517.14Zm-5.8-.27v8.85c0,1.46.53,2.15,1.51,2.15s1.52-.64,1.52-2.19v-8.83c0-1.4-.43-2.17-1.53-2.17S483.08,515.38,483.08,516.87Z" transform="translate(-450 -450)"/></g></g></svg>